#!OML:ASF G:\JayActor3\Patient Classification 1\Patient 1\Session 2\male.ASF
:FULLY-SPECIFIED
:DEGREES
3276
root 21.4787 16.9517 -5.93566 2347.45 -79.7131 -551.094
lowerback 4.59035 -0.68109 -4.87135
upperback -0.0351997 -1.19518 -0.506576
thorax -2.52407 -0.543163 2.28941
lowerneck -3.49787 -3.02114 -4.90526
upperneck -0.134487 -4.0517 9.7654
head 0.914093 -1.97936 3.98322
rclavicle -2.69664e-014 -1.15295e-014
rhumerus -16.3858 14.5803 -70.2285
rradius 58.583
rwrist 2.01628
rhand -27.9103 7.12248
rfingers 7.12502
rthumb -1.29928 -22.8533
lclavicle -2.69664e-014 -1.15295e-014
lhumerus -14.0684 -6.8856 69.2062
lradius 55.6934
lwrist 13.9916
lhand -21.5166 19.6146
lfingers 7.12502
lthumb 4.87557 49.5385
rfemur -31.2981 -2.73989 18.5706
rtibia 62.1841
rfoot -17.2792 -1.80668
rtoes 5.11581
lfemur 3.48969 5.87991 -20.2724
ltibia 17.9695
lfoot -8.75413 8.17127
ltoes -12.8195
3277
root 21.3626 16.9572 -5.95425 2348.03 -79.8208 -551.487
lowerback 4.49797 -0.751872 -4.99696
upperback -0.0986736 -1.29212 -0.500058
thorax -2.52777 -0.588494 2.3715
lowerneck -3.53411 -3.07776 -4.92652
upperneck -0.130737 -4.12694 9.78301
head 0.929066 -2.01601 3.99101
rclavicle -7.01958e-015 -1.43125e-014
rhumerus -16.323 14.5244 -70.0531
rradius 58.6777
rwrist 1.88954
rhand -27.8204 7.07029
rfingers 7.12502
rthumb -1.21243 -22.906
lclavicle -7.01958e-015 -1.43125e-014
lhumerus -13.8319 -7.10231 69.398
lradius 55.8247
lwrist 13.8926
lhand -21.5283 19.6048
lfingers 7.12502
lthumb 4.86424 49.529
rfemur -31.3604 -2.38232 18.5235
rtibia 59.4933
rfoot -17.5022 -1.82465
rtoes 5.45566
lfemur 4.03838 5.841 -20.3183
ltibia 17.3845
lfoot -8.71126 8.16814
ltoes -13.0527
3278
root 21.2451 16.963 -5.97476 2348.59 -79.9639 -551.864
lowerback 4.3879 -0.823813 -5.10234
upperback -0.158697 -1.3881 -0.491777
thorax -2.51802 -0.633929 2.44341
lowerneck -3.54894 -3.1403 -4.96287
upperneck -0.143346 -4.20919 9.81177
head 0.936271 -2.05688 4.00584
rclavicle 2.42269e-015 5.36719e-015
rhumerus -16.2754 14.4352 -69.8645
rradius 58.7802
rwrist 1.7653
rhand -27.7489 7.01219
rfingers 7.12502
rthumb -1.14338 -22.9645
lclavicle 2.42269e-015 5.36719e-015
lhumerus -13.6033 -7.32276 69.5858
lradius 55.9729
lwrist 13.849
lhand -21.5589 19.5951
lfingers 7.12502
lthumb 4.83469 49.52
rfemur -31.3043 -1.94037 18.4272
rtibia 56.725
rfoot -17.5657 -1.855
rtoes 5.89669
lfemur 4.62097 5.81249 -20.3416
ltibia 16.7415
lfoot -8.6459 8.14155
ltoes -13.2823
3279
root 21.1259 16.9683 -5.99729 2349.13 -80.1382 -552.219
lowerback 4.25087 -0.896166 -5.18459
upperback -0.216327 -1.48141 -0.482329
thorax -2.491 -0.678775 2.50251
lowerneck -3.5394 -3.20942 -5.01463
upperneck -0.169422 -4.29942 9.8477
head 0.936119 -2.10247 4.02637
rclavicle -3.76759e-014 -7.95139e-015
rhumerus -16.243 14.322 -69.664
rradius 58.8858
rwrist 1.65501
rhand -27.7009 6.95595
rfingers 7.12502
rthumb -1.09705 -23.021
lclavicle -3.76759e-014 -7.95139e-015
lhumerus -13.3897 -7.5517 69.7665
lradius 56.1396
lwrist 13.8576
lhand -21.6016 19.5776
lfingers 7.12502
lthumb 4.79349 49.5034
rfemur -31.1444 -1.41774 18.2836
rtibia 53.9334
rfoot -17.5345 -1.9215
rtoes 6.48958
lfemur 5.2305 5.78919 -20.3434
ltibia 16.0507
lfoot -8.57342 8.10158
ltoes -13.4731
3280
root 21.0053 16.9724 -6.02195 2349.65 -80.3384 -552.552
lowerback 4.09048 -0.966575 -5.24492
upperback -0.27285 -1.56926 -0.471408
thorax -2.45035 -0.721542 2.54966
lowerneck -3.49946 -3.28564 -5.08442
upperneck -0.20555 -4.39856 9.88959
head 0.928789 -2.1533 4.0528
rclavicle 4.17758e-014 1.98785e-015
rhumerus -16.2264 14.1904 -69.4511
rradius 58.9885
rwrist 1.57305
rhand -27.6833 6.90473
rfingers 7.12502
rthumb -1.08002 -23.0723
lclavicle 4.17758e-014 1.98785e-015
lhumerus -13.1958 -7.79361 69.9402
lradius 56.3222
lwrist 13.9024
lhand -21.6428 19.5616
lfingers 7.12502
lthumb 4.7537 49.4883
rfemur -30.8951 -0.820912 18.0983
rtibia 51.1769
rfoot -17.5011 -2.06717
rtoes 7.14785
lfemur 5.86964 5.77071 -20.3222
ltibia 15.3182
lfoot -8.49977 8.05093
ltoes -13.6171
3281
root 20.8833 16.9749 -6.04879 2350.18 -80.5581 -552.903
lowerback 3.90796 -1.03297 -5.29102
upperback -0.333731 -1.6497 -0.461992
thorax -2.40259 -0.760938 2.58603
lowerneck -3.41998 -3.36901 -5.16795
upperneck -0.243183 -4.50766 9.93403
head 0.915306 -2.20997 4.08321
rclavicle 4.5795e-014 1.17283e-014
rhumerus -16.2292 14.0461 -69.2281
rradius 59.0823
rwrist 1.51866
rhand -27.6794 6.87089
rfingers 7.12502
rthumb -1.07623 -23.1061
lclavicle 4.5795e-014 1.17283e-014
lhumerus -13.0265 -8.05454 70.1062
lradius 56.5108
lwrist 13.9656
lhand -21.6837 19.5464
lfingers 7.12502
lthumb 4.71414 49.474
rfemur -30.5775 -0.165787 17.8722
rtibia 48.5148
rfoot -17.5498 -2.32434
rtoes 7.71475
lfemur 6.53835 5.75559 -20.2847
ltibia 14.5462
lfoot -8.42639 7.99074
ltoes -13.7196
3282
root 20.7598 16.9756 -6.07763 2350.77 -80.7923 -553.319
lowerback 3.70401 -1.09308 -5.32827
upperback -0.401366 -1.7203 -0.457879
thorax -2.35083 -0.795613 2.61065
lowerneck -3.30216 -3.46202 -5.25783
upperneck -0.273079 -4.63106 9.97819
head 0.898984 -2.27448 4.11502
rclavicle 2.06612e-014 -2.38542e-015
rhumerus -16.2524 13.8916 -68.9973
rradius 59.1633
rwrist 1.49308
rhand -27.6845 6.85083
rfingers 7.12502
rthumb -1.08119 -23.1262
lclavicle 2.06612e-014 -2.38542e-015
lhumerus -12.8774 -8.3345 70.2656
lradius 56.6913
lwrist 14.0307
lhand -21.72 19.527
lfingers 7.12502
lthumb 4.67918 49.4553
rfemur -30.2092 0.527898 17.6066
rtibia 46.0046
rfoot -17.7242 -2.68505
rtoes 8.22423
lfemur 7.24408 5.73856 -20.239
ltibia 13.726
lfoot -8.34953 7.92125
ltoes -13.767
